HIERARCHY
ROOT Hips
{
	OFFSET 0.000000 0.000000 0.000000 
	CHANNELS 6 Xposition Yposition Zposition Zrotation Yrotation Xrotation
	JOINT LeftUpLeg
	{
		OFFSET 1.363060 -1.794630 0.839290 
		CHANNELS 3 Zrotation Yrotation Xrotation
		JOINT LeftLeg
		{
			OFFSET 2.448110 -6.726130 0.000000 
			CHANNELS 3 Zrotation Yrotation Xrotation
			JOINT LeftFoot
			{
				OFFSET 2.562200 -7.039590 0.000000 
				CHANNELS 3 Zrotation Yrotation Xrotation
				JOINT LeftToeBase
				{
					OFFSET 0.157640 -0.433110 2.322550 
					CHANNELS 3 Zrotation Yrotation Xrotation
					End Site
					{
						OFFSET 0.000000 0.000000 0.000000 
					}
				}
			}
		}
	}
	JOINT RightUpLeg
	{
		OFFSET -1.305520 -1.794630 0.839290 
		CHANNELS 3 Zrotation Yrotation Xrotation
		JOINT RightLeg
		{
			OFFSET -2.542530 -6.985550 0.000000 
			CHANNELS 3 Zrotation Yrotation Xrotation
			JOINT RightFoot
			{
				OFFSET -2.568260 -7.056230 0.000000 
				CHANNELS 3 Zrotation Yrotation Xrotation
				JOINT RightToeBase
				{
					OFFSET -0.164730 -0.452590 2.363150 
					CHANNELS 3 Zrotation Yrotation Xrotation
					End Site
					{
						OFFSET 0.000000 0.000000 0.000000 
					}
				}
			}
		}
	}
	JOINT Spine
	{
		OFFSET 0.028270 2.035590 -0.193380 
		CHANNELS 3 Zrotation Yrotation Xrotation
		JOINT Spine1
		{
			OFFSET 0.056720 2.048850 -0.042750 
			CHANNELS 3 Zrotation Yrotation Xrotation
			JOINT Neck1
			{
				OFFSET -0.054170 1.746240 0.172020 
				CHANNELS 3 Zrotation Yrotation Xrotation
				JOINT Head
				{
					OFFSET 0.104070 1.761360 -0.123970 
					CHANNELS 3 Zrotation Yrotation Xrotation
					End Site
					{
						OFFSET 0.000000 0.000000 0.000000 
					}
				}
			}
			JOINT LeftArm
			{
				OFFSET 3.362410 1.200890 -0.311210 
				CHANNELS 3 Zrotation Yrotation Xrotation
				JOINT LeftForeArm
				{
					OFFSET 4.983000 -0.000000 -0.000000 
					CHANNELS 3 Zrotation Yrotation Xrotation
					JOINT LeftHand
					{
						OFFSET 3.483560 -0.000000 -0.000000 
						CHANNELS 3 Zrotation Yrotation Xrotation
						JOINT LeftHandIndex1
						{
							OFFSET 0.715260 -0.000000 -0.000000 
							CHANNELS 3 Zrotation Yrotation Xrotation
							End Site
							{
								OFFSET 0.000000 0.000000 0.000000 
							}
						}
					}
				}
			}
			JOINT RightArm
			{
				OFFSET -3.136600 1.374050 -0.404650 
				CHANNELS 3 Zrotation Yrotation Xrotation
				JOINT RightForeArm
				{
					OFFSET -5.241900 -0.000000 -0.000000 
					CHANNELS 3 Zrotation Yrotation Xrotation
					JOINT RightHand
					{
						OFFSET -3.444170 -0.000000 -0.000000 
						CHANNELS 3 Zrotation Yrotation Xrotation
						JOINT RightHandIndex1
						{
							OFFSET -0.622530 -0.000000 -0.000000 
							CHANNELS 3 Zrotation Yrotation Xrotation
							End Site
							{
								OFFSET 0.000000 0.000000 0.000000 
							}
						}
					}
				}
			}
		}
	}
}
MOTION
Frames: 7
Frame Time: 0.041667
-0.525587 18.283171 5.230495 -1.088218 2.656700 -5.408936 -14.480078 -7.707212 -3.387838 1.375434 6.811382 23.737345 -0.253786 3.711954 -10.438165 8.585100 -16.533200 -54.644100 3.021863 1.940646 -1.413119 -0.013916 0.849583 1.444192 0.331576 -0.661972 5.549454 0.000000 0.000000 0.000000 2.237488 -2.936959 37.757214 -1.539038 -0.504583 -17.484720 4.643203 -8.991008 46.187241 0.704200 -3.460000 16.769500 -79.287524 -9.308420 93.343978 95.379227 -57.085754 -59.548600 -0.101318 0.070765 -38.159582 -7.125000 0.000000 0.000000 63.680252 -20.219415 73.120921 -123.271627 46.481396 -86.554303 -0.713750 0.123197 -27.398176 7.125000 0.000000 0.000000 
-0.523432 18.282289 5.227164 -1.013709 2.698158 -5.491332 -14.570365 -7.699156 -3.288832 1.368951 6.795239 23.694427 -0.260598 3.730067 -10.403103 8.587700 -16.534900 -54.652800 3.020278 1.941104 -1.412042 -0.013748 0.850371 1.444498 0.331855 -0.661112 5.549577 0.000000 0.000000 0.000000 2.116326 -2.921950 37.785578 -1.491219 -0.503255 -17.554523 4.614017 -8.967955 46.199465 0.699200 -3.456000 16.773700 -79.307851 -9.332731 93.377983 95.291344 -57.097658 -59.467849 -0.096224 0.075558 -38.097730 -7.125000 0.000000 0.000000 63.511941 -20.495619 72.984525 -123.461060 46.406647 -86.756982 -0.738623 0.091668 -27.674512 7.125000 0.000000 0.000000 
-0.518435 18.280819 5.221678 -1.028481 2.810206 -5.635228 -14.600010 -7.757368 -3.139091 1.364850 6.784036 23.665993 -0.265280 3.742148 -10.378243 8.593800 -16.539100 -54.674500 3.019537 1.941721 -1.411563 -0.013801 0.851063 1.444873 0.332083 -0.660351 5.549749 0.000000 0.000000 0.000000 2.093311 -2.982014 37.809103 -1.514503 -0.548390 -17.671639 4.607582 -8.934057 46.223717 0.709000 -3.446800 16.789900 -79.361004 -9.359629 93.365922 95.201959 -57.112955 -59.377212 -0.096998 0.078648 -38.101492 -7.125000 0.000000 0.000000 63.348742 -20.734815 72.859813 -123.602839 46.351363 -86.910816 -0.760685 0.059747 -27.908292 7.125000 0.000000 0.000000 
-0.517260 18.280819 5.219718 -1.005516 2.894377 -5.663899 -14.636368 -7.807678 -3.117139 1.367547 6.787303 23.677305 -0.256992 3.702997 -10.368145 8.605200 -16.546800 -54.714500 3.018677 1.942081 -1.410802 -0.013769 0.851647 1.445103 0.332266 -0.659744 5.549910 0.000000 0.000000 0.000000 2.021841 -3.024787 37.820636 -1.500439 -0.582419 -17.711164 4.592619 -8.899178 46.227785 0.714300 -3.438400 16.790700 -79.385622 -9.337488 93.282692 95.164037 -57.119139 -59.341116 -0.099640 0.079754 -38.184792 -7.125000 0.000000 0.000000 63.235332 -20.929300 72.730763 -123.709920 46.306188 -87.022521 -0.787242 0.039671 -28.067253 7.125000 0.000000 0.000000 
-0.518141 18.282191 5.219327 -1.016175 2.933958 -5.624464 -14.612976 -7.843286 -3.177222 1.370119 6.795721 23.695030 -0.257483 3.699595 -10.346012 8.632100 -16.565000 -54.808800 3.016472 1.943112 -1.408435 -0.013743 0.853352 1.445790 0.332769 -0.657996 5.550458 0.000000 0.000000 0.000000 1.917475 -3.033041 37.821340 -1.513136 -0.608089 -17.706304 4.566412 -8.883054 46.219769 0.702500 -3.432700 16.778100 -79.342353 -9.284946 93.236582 95.197566 -57.114280 -59.374412 -0.104522 0.082941 -38.385578 -7.125000 0.000000 0.000000 63.246491 -21.036144 72.594321 -123.706133 46.298453 -87.017550 -0.804183 0.027584 -28.313940 7.125000 0.000000 0.000000 
-0.516868 18.283073 5.215408 -1.045510 2.958082 -5.650858 -14.588778 -7.896720 -3.168077 1.369211 6.801999 23.704690 -0.276209 3.780963 -10.340309 8.663000 -16.585900 -54.917200 3.013964 1.944394 -1.405498 -0.013769 0.855446 1.446636 0.333360 -0.655872 5.551178 0.000000 0.000000 0.000000 1.827113 -3.041013 37.807479 -1.546144 -0.637202 -17.782354 4.508728 -8.877030 46.232512 0.671900 -3.432800 16.764500 -79.303755 -9.204952 93.233229 95.208784 -57.114517 -59.382107 -0.115464 0.089499 -38.574151 -7.125000 0.000000 0.000000 63.293990 -21.036417 72.534446 -123.597520 46.334220 -86.905632 -0.803871 0.019945 -28.637885 7.125000 0.000000 0.000000 
-0.518631 18.284150 5.215996 -1.028492 2.959308 -5.574567 -14.590212 -7.875928 -3.267371 1.371513 6.806750 23.716609 -0.278291 3.778331 -10.301732 8.683600 -16.599800 -54.989500 3.014698 1.943814 -1.405611 -0.013778 0.854907 1.446278 0.333172 -0.656527 5.551144 0.000000 0.000000 0.000000 1.834015 -3.066648 37.771282 -1.524453 -0.647282 -17.780229 4.430985 -8.855889 46.242319 0.643800 -3.436300 16.747100 -79.316215 -9.099770 93.210570 95.142513 -57.122093 -59.316928 -0.128126 0.097472 -38.617742 -7.125000 0.000000 0.000000 63.306277 -20.969115 72.547525 -123.426236 46.391654 -86.733178 -0.791146 0.020045 -28.834814 7.125000 0.000000 0.000000 
